# xmcd CD database file
#
# Track frame offsets:
#	150
#	18750
#	36450
#	52690
#	68740
#	85015
#	96190
#	114377
#	132115
#	148615
#
# Disc length: 2152 seconds
#
# Revision: 0
# Processed by: cddbd v1.5.1PL0 Copyright (c) Steve Scherf et al.
# Submitted via: CDex 1.51
#
DISCID=7808660a
DTITLE=Juice Newton - All Amreican Country
DYEAR=2003
DGENRE=Country
TTITLE0=You Make Me Want to Make You Mine
TTITLE1=Both to Each Other (Friends and Lovers)
TTITLE2=The Sweetest Thing (I've Ever Known)
TTITLE3=Cheap Love
TTITLE4=What Can I Do With My Heart
TTITLE5=When Love Comes Around the Bend
TTITLE6=Can't Wait All Night
TTITLE7=A Little Love
TTITLE8=You Don't Know Me
TTITLE9=Stuck In The Middle With You
EXTD=YEAR: 2003
EXTT0=
EXTT1=
EXTT2=
EXTT3=
EXTT4=
EXTT5=
EXTT6=
EXTT7=
EXTT8=
EXTT9=
PLAYORDER=
